Coordinates
version=1
nRows=16
nColumns=22
inDegrees=yes

Units are S.I. units (second, meters, Newtons, ...)
If the header above contains a line with 'inDegrees', this indicates whether rotational values are in degrees (yes) or radians (no).

endheader
time	pelvis_tilt	pelvis_list	pelvis_rotation	pelvis_tx	pelvis_ty	pelvis_tz	hip_flexion_r	hip_adduction_r	hip_rotation_r	knee_angle_r	ankle_angle_r	subtalar_angle_r	hip_flexion_l	hip_adduction_l	hip_rotation_l	knee_angle_l	ankle_angle_l	subtalar_angle_l	lumbar_extension	lumbar_bending	lumbar_rotation
      2.53000000	      1.87558624	     -5.69743687	     -3.32031723	     -0.04923596	      0.93627747	      0.06103679	      1.48718134	      9.95900395	     -3.24381042	    -16.40074216	     12.32829296	     -4.15057454	     25.26630736	    -11.30873351	     -1.84211155	    -55.33468321	      7.35141986	     -0.83676870	    -15.39068383	      3.56635020	     -2.69064577
      2.54000000	      1.79509359	     -5.89990531	     -3.33928876	     -0.05575326	      0.93629485	      0.06093469	      1.98723193	     10.18322481	     -3.32166732	    -16.34578523	     11.94793582	     -4.08524040	     24.37085675	    -11.58096809	     -1.70046646	    -56.80552044	      7.56652203	     -1.00503209	    -15.20587376	      3.84020071	     -2.96863925
      2.55000000	      1.71155319	     -6.11328548	     -3.33719633	     -0.06216985	      0.93622530	      0.06074720	      2.49254137	     10.41242778	     -3.41564840	    -16.30671591	     11.58762038	     -3.99616093	     23.38033260	    -11.85809137	     -1.61001010	    -58.10659930	      7.74492070	     -1.18472910	    -15.00149667	      4.13757911	     -3.29375213
      2.56000000	      1.62478431	     -6.33642784	     -3.31753942	     -0.06850441	      0.93607247	      0.06047101	      3.00673748	     10.64432747	     -3.52513635	    -16.28660177	     11.24658930	     -3.89275802	     22.29512116	    -12.12675829	     -1.54990409	    -59.21914838	      7.88866319	     -1.34408977	    -14.78071925	      4.45855688	     -3.66413746
      2.57000000	      1.53497151	     -6.56352691	     -3.27487323	     -0.07476285	      0.93583150	      0.06006922	      3.53875568	     10.86972675	     -3.65236578	    -16.29995513	     10.92530021	     -3.77372953	     21.12303694	    -12.37771071	     -1.52457680	    -60.13620512	      7.99287983	     -1.47762027	    -14.54047189	      4.80126805	     -4.07952200
      2.58000000	      1.44028143	     -6.79421021	     -3.21409256	     -0.08097348	      0.93550362	      0.05955420	      4.09213644	     11.08956276	     -3.78889122	    -16.34380625	     10.61561557	     -3.63909375	     19.87055393	    -12.60318882	     -1.51692320	    -60.84736252	      8.06206841	     -1.57776425	    -14.28461615	      5.16226989	     -4.54678730
      2.59000000	      1.34450370	     -7.02035518	     -3.13636025	     -0.08714570	      0.93509692	      0.05892117	      4.66933456	     11.29413156	     -3.93173398	    -16.42824677	     10.32107297	     -3.48885704	     18.53847183	    -12.79522229	     -1.53385632	    -61.34378714	      8.09411318	     -1.63425196	    -14.01575950	      5.53187575	     -5.05843316
      2.60000000	      1.23160153	     -7.22652167	     -3.07160192	     -0.09332854	      0.93458501	      0.05820699	      5.31638816	     11.46644540	     -4.08724025	    -16.60270575	     10.05961206	     -3.41355379	     17.14546705	    -12.94643492	     -1.60508868	    -61.62081126	      8.08695756	     -1.63067683	    -13.72263615	      5.88670975	     -5.56787013
      2.61000000	      1.12981056	     -7.43621902	     -2.96382056	     -0.09948838	      0.93402548	      0.05734719	      5.95891429	     11.63369471	     -4.24796889	    -16.78062178	      9.76604194	     -3.30514956	     15.68487009	    -13.06206921	     -1.66186508	    -61.67879531	      8.07623036	     -1.58583968	    -13.42973999	      6.26192930	     -6.16249095
      2.62000000	      1.07022095	     -7.62869739	     -2.81986431	     -0.10561286	      0.93348871	      0.05635169	      6.55231511	     11.77454278	     -4.38586206	    -16.94421791	      9.49395859	     -3.10752643	     14.11697392	    -13.12459580	     -1.72296306	    -61.49795692	      8.03713013	     -1.42975081	    -13.16974640	      6.62868015	     -6.84175289
      2.63000000	      0.98525832	     -7.78972247	     -2.70172500	     -0.11179650	      0.93284657	      0.05532704	      7.23930319	     11.87668579	     -4.52527390	    -17.22017367	      9.23778281	     -3.01372084	     12.52191157	    -13.14775409	     -1.85225148	    -61.09661322	      7.98921325	     -1.22421560	    -12.87830327	      6.95658242	     -7.49613538
      2.64000000	      0.88980242	     -7.92538790	     -2.57606621	     -0.11799282	      0.93213705	      0.05424003	      7.96445061	     11.94743024	     -4.66951360	    -17.53547131	      8.98296432	     -2.98926373	     10.89785473	    -13.12927420	     -2.00885436	    -60.47564212	      7.95399353	     -0.99649709	    -12.56161915	      7.25721471	     -8.18795796
      2.65000000	      0.79668577	     -8.03617565	     -2.44346354	     -0.12421688	      0.93138840	      0.05310758	      8.71507049	     11.99039629	     -4.80098610	    -17.89334712	      8.73354058	     -3.01332764	      9.24071854	    -13.07657054	     -2.19882326	    -59.64037495	      7.92820767	     -0.72332642	    -12.23906105	      7.52476077	     -8.90142333
      2.66000000	      0.70813837	     -8.12015358	     -2.30850438	     -0.13047455	      0.93060297	      0.05192896	      9.48235673	     12.00284914	     -4.91530499	    -18.28462693	      8.49067442	     -3.09418840	      7.55742845	    -12.98577739	     -2.41535577	    -58.60393296	      7.91742856	     -0.38663268	    -11.91372299	      7.75876933	     -9.63819264
      2.67000000	      0.59798124	     -8.17684786	     -2.17360126	     -0.13677717	      0.92974764	      0.05072959	     10.29081021	     11.98602064	     -5.02325419	    -18.69965296	      8.23449342	     -3.22705742	      5.89100944	    -12.86447868	     -2.65854839	    -57.38518462	      7.94587450	     -0.03524914	    -11.55402181	      7.95323938	    -10.39011571
      2.68000000	      0.45503353	     -8.20300795	     -2.03807931	     -0.14310910	      0.92882412	      0.04949965	     11.13268134	     11.93286981	     -5.14056810	    -19.10344686	      7.96034895	     -3.38523946	      4.26395311	    -12.70851482	     -2.91920897	    -55.99752372	      8.02101324	      0.30743868	    -11.14397688	      8.10676930	    -11.14586820
